<?xml version="1.0" encoding="UTF-8"?>
<svg id="uuid-c01eeca6-3f49-492e-9bfa-af1602278cdd" data-name="uuid-3e056ed6-4bdf-4fb5-9341-7e8ab4f58998" xmlns="http://www.w3.org/2000/svg" width="36.1726" height="26.0106" viewBox="0 0 36.1726 26.0106">
  <path d="M20.4477,17.9966c1.2733-.4882,2.1593.2942,3.6171.1033.7799-.1021,1.2966-.4267,2.0152-.8785.4002-.2515,2.1791-1.3695,2.9455-3.3587,1.0915-2.8337-.566-5.6338-1.0851-6.5109-1.6691-2.8197-4.3055-3.9083-5.4774-4.3923-1.0375-.4284-3.498-1.406-6.6659-.8268-1.1872.2171-3.9053.9146-6.1492,3.3587-1.9627,2.1381-2.5461,4.5049-2.7387,5.7358-.1222.7807-.4173,3.2132.7233,5.9942.1965.4792,1.2524,2.96,3.8756,4.909.919.6826,2.3219,1.699,4.3405,1.9119,0,0,1.6828.1776,3.6171-.7233.1958-.0913.5083-.252.62-.5684.1676-.4743-.1884-1.092-.5685-1.4468-.4397-.4105-.7419-.3104-.9301-.6717-.2351-.4516.024-1.0157.1033-1.1885.1897-.4134.4811-.6448.775-.8785.0383-.0304.4772-.3749.9818-.5685h.0005Z" style="fill: none; stroke: #000; stroke-miterlimit: 10; stroke-width: 2.014px;"/>
  <circle cx="24.9183" cy="12.3775" r="1.4598" style="fill: #000; stroke: #000; stroke-miterlimit: 10; stroke-width: 1.0071px;"/>
  <circle cx="21.2365" cy="7.6106" r="1.4598" style="fill: #000; stroke: #000; stroke-miterlimit: 10; stroke-width: 1.0071px;"/>
  <circle cx="14.9323" cy="7.6106" r="1.4598" style="fill: #000; stroke: #000; stroke-miterlimit: 10; stroke-width: 1.0071px;"/>
  <circle cx="11.255" cy="12.3775" r="1.4598" style="fill: #000; stroke: #000; stroke-miterlimit: 10; stroke-width: 1.0071px;"/>
</svg>