<?xml version="1.0" encoding="UTF-8"?>
<svg id="uuid-2ca4b425-6ad4-4d47-b0b3-1d70ca54c28c" data-name="uuid-319884f5-0d4b-43f7-bc46-cc4fc06284d4" xmlns="http://www.w3.org/2000/svg" width="36.2548" height="15.9756" viewBox="0 0 36.2548 15.9756">
  <rect x="-210.6726" y="-27.5727" width="399.3311" height="65.994" style="fill: #83c7f4; stroke-width: 0px;"/>
  <rect x="-11.5507" y="-16.834" width="116.1203" height="46.17" rx="8.598" ry="8.598" style="fill: #fff; stroke-width: 0px;"/>
  <g>
    <path d="M10.0527,12.4112h4.6036c.4591,0,.8088.0934,1.0503.2819.2405.1886.3613.4441.3613.7674,0,.2881-.096.5321-.2864.7322-.1912.2-.4811.2995-.8688.2995h-6.4918c-.4415,0-.785-.1216-1.0318-.3657-.2476-.2441-.3709-.5313-.3709-.8599,0-.2124.0793-.4925.2379-.8423.1595-.3498.3322-.6256.5207-.8247.7824-.8115,1.4872-1.5075,2.1173-2.0864.6291-.5789,1.0784-.9595,1.3489-1.1419.482-.341.8837-.6837,1.2045-1.0282.3198-.3437.5639-.6961.7322-1.0582.1674-.3613.2511-.7155.2511-1.0625,0-.3762-.0899-.7128-.2688-1.0097-.1797-.2969-.4238-.5278-.7322-.6921-.3093-.1647-.6458-.2471-1.0106-.2471-.77,0-1.3754.3383-1.8168,1.0141-.0582.0881-.1568.3295-.2951.7234s-.2943.697-.4679.9084-.4273.3172-.763.3172c-.2934,0-.5375-.0969-.7313-.2908-.1947-.1938-.2916-.4591-.2916-.7939,0-.4053.0917-.8291.274-1.2696.1815-.4415.4537-.841.8159-1.1996.3613-.3586.8203-.6485,1.3754-.8688.556-.2207,1.2071-.3308,1.9542-.3308.8996,0,1.667.1409,2.3014.4233.4115.1881.7736.4467,1.0855.7763.311.329.5542.7097.7269,1.1414.1736.4326.2608.8811.2608,1.3454,0,.7295-.1806,1.3921-.5428,1.9886-.3613.5974-.7304,1.0644-1.1067,1.4027s-1.0071.8688-1.8917,1.5921c-.8854.7234-1.4925,1.2846-1.822,1.6846-.1409.1586-.2846.3498-.4317.5735h0Z" style="fill: #000; stroke-width: 0px;"/>
    <path d="M19.7904,1.5625h3.4133c.8872,0,1.6494.0824,2.2837.2471.6353.1643,1.2115.4731,1.7296.926,1.3463,1.1521,2.0194,2.9044,2.0194,5.2561,0,.7763-.0678,1.4846-.2026,2.126-.1357.6406-.3445,1.2185-.6264,1.7331s-.6441.9745-1.0846,1.3798c-.3472.3119-.7269.5621-1.1383.7498-.4115.1886-.8538.3207-1.3269.3973-.474.0767-1.0071.1146-1.6009.1146h-3.4133c-.4766,0-.8353-.0723-1.0767-.2159-.2405-.1445-.3982-.3472-.4714-.6088-.074-.2616-.1102-.6009-.1102-1.0185V3.1678c0-.5648.126-.9731.3788-1.226s.6617-.3793,1.2265-.3793ZM20.8045,3.6353v8.776h1.9842c.4352,0,.7763-.0124,1.0229-.0361.2476-.0229.5031-.0819.7674-.1762.2652-.0934.4943-.2265.6881-.3965.8767-.741,1.3145-2.0168,1.3145-3.8283,0-1.2758-.193-2.2309-.578-2.8662s-.8599-1.0396-1.4247-1.2124c-.5639-.1736-1.2467-.2604-2.0459-.2604h-1.7287Z" style="fill: #000; stroke-width: 0px;"/>
  </g>
  <rect x=".2902" y="-5.3907" width="35.6743" height="26.8003" rx="3.6309" ry="3.6309" style="fill: none; stroke-width: 0px;"/>
</svg>